HIERARCHY
ROOT root
{
	OFFSET 0.000000 0.000000 0.000000
	CHANNELS 6 Xposition Yposition Zposition Zrotation Yrotation Xrotation
	JOINT lhip
	{
		OFFSET 0.058581 -0.082280 -0.017664
		CHANNELS 3 Zrotation Yrotation Xrotation
		JOINT lknee
		{
			OFFSET 0.043451 -0.386469 0.008037
			CHANNELS 3 Zrotation Yrotation Xrotation
			JOINT lankle
			{
				OFFSET -0.014790 -0.426874 -0.037428
				CHANNELS 3 Zrotation Yrotation Xrotation
				JOINT ltoe
				{
					OFFSET 0.041054 -0.060286 0.122042
					CHANNELS 3 Zrotation Yrotation Xrotation
					End Site
					{
						OFFSET 0.000000 0.000000 0.000000
					}
				}
			}
		}
	}
	JOINT rhip
	{
		OFFSET -0.060310 -0.090513 -0.013543
		CHANNELS 3 Zrotation Yrotation Xrotation
		JOINT rknee
		{
			OFFSET -0.043257 -0.383688 -0.004843
			CHANNELS 3 Zrotation Yrotation Xrotation
			JOINT rankle
			{
				OFFSET 0.019056 -0.420046 -0.034562
				CHANNELS 3 Zrotation Yrotation Xrotation
				JOINT rtoe
				{
					OFFSET -0.034840 -0.062106 0.130323
					CHANNELS 3 Zrotation Yrotation Xrotation
					End Site
					{
						OFFSET 0.000000 0.000000 0.000000
					}
				}
			}
		}
	}
	JOINT lowerback
	{
		OFFSET 0.004439 0.124404 -0.038385
		CHANNELS 3 Zrotation Yrotation Xrotation
		JOINT upperback
		{
			OFFSET 0.004488 0.137956 0.026820
			CHANNELS 3 Zrotation Yrotation Xrotation
			JOINT chest
			{
				OFFSET -0.002265 0.056032 0.002855
				CHANNELS 3 Zrotation Yrotation Xrotation
				JOINT lowerneck
				{
					OFFSET -0.013390 0.211636 -0.033468
					CHANNELS 3 Zrotation Yrotation Xrotation
					JOINT upperneck
					{
						OFFSET 0.010113 0.088937 0.050410
						CHANNELS 3 Zrotation Yrotation Xrotation
						End Site
						{
							OFFSET 0.000000 0.000000 0.000000
						}
					}
				}
				JOINT lclavicle
				{
					OFFSET 0.071702 0.114000 -0.018898
					CHANNELS 3 Zrotation Yrotation Xrotation
					JOINT lshoulder
					{
						OFFSET 0.122921 0.045205 -0.019046
						CHANNELS 3 Zrotation Yrotation Xrotation
						JOINT lelbow
						{
							OFFSET 0.255332 -0.015649 -0.022946
							CHANNELS 3 Zrotation Yrotation Xrotation
							JOINT lwrist
							{
								OFFSET 0.265709 0.012698 -0.007375
								CHANNELS 3 Zrotation Yrotation Xrotation
								End Site
								{
									OFFSET 0.000000 0.000000 0.000000
								}
							}
						}
					}
				}
				JOINT rclavicle
				{
					OFFSET -0.082954 0.112472 -0.023707
					CHANNELS 3 Zrotation Yrotation Xrotation
					JOINT rshoulder
					{
						OFFSET -0.113228 0.046853 -0.008472
						CHANNELS 3 Zrotation Yrotation Xrotation
						JOINT relbow
						{
							OFFSET -0.260127 -0.014369 -0.031269
							CHANNELS 3 Zrotation Yrotation Xrotation
							JOINT rwrist
							{
								OFFSET -0.269108 0.006794 -0.006027
								CHANNELS 3 Zrotation Yrotation Xrotation
								End Site
								{
									OFFSET 0.000000 0.000000 0.000000
								}
							}
						}
					}
				}
			}
		}
	}
}
MOTION
Frames: 7
Frame Time: 0.033333
-0.821597 0.070213 0.921552 76.265105 1.759291 100.137149 5.190104 -2.660150 -41.064783 -6.886399 11.879445 23.590520 5.487921 15.592299 -8.489885 0.000000 -0.000000 0.000000 3.499081 2.327822 -30.052324 -8.024274 -15.068198 49.883855 2.217583 -27.181749 -29.557023 0.000000 -0.000000 0.000000 -1.176420 -1.113543 42.237692 -0.588711 0.181801 -12.476385 0.732160 -2.774360 17.383329 -1.642893 4.307514 4.043671 -1.172369 9.149742 3.021205 -18.387416 16.415051 -8.478871 -58.380999 -1.052292 15.121495 -9.239064 -60.326211 26.120593 15.715102 -1.312800 -29.430089 13.566694 -10.726206 -13.622626 62.831341 -3.617112 25.833807 -2.383878 57.348701 14.269192 -4.641908 6.772416 -8.093957 
-0.811848 0.070732 0.920768 76.310188 1.763393 100.228722 5.300151 -2.488621 -41.243434 -7.176975 12.533418 24.943473 5.607613 15.717812 -9.537180 0.000000 -0.000000 0.000000 3.593219 2.421227 -29.357807 -8.176290 -14.800089 49.690453 2.399626 -27.825936 -30.056268 0.000000 -0.000000 0.000000 -1.482876 -0.845363 42.312761 -0.609433 0.108426 -12.622425 0.692134 -2.754415 17.242977 -1.198235 4.475773 2.423886 -0.803759 9.068769 4.858630 -18.526726 16.129937 -8.316802 -58.026576 -1.322386 15.004739 -8.806725 -60.233288 25.634843 15.846269 -1.393890 -29.426626 13.830558 -10.645587 -13.517545 62.576250 -3.863618 25.974116 -2.254712 57.153785 14.480578 -4.540462 6.887084 -8.284460 
-0.801028 0.071534 0.920502 76.405873 1.620394 100.360388 5.181558 -2.594443 -41.306476 -7.389521 12.920802 26.074519 5.764565 16.046716 -10.555797 0.000000 -0.000000 0.000000 3.562461 2.462513 -28.658392 -8.394169 -14.437902 49.489604 2.711374 -28.456059 -30.429772 0.000000 -0.000000 0.000000 -1.802929 -0.578157 42.330606 -0.669941 0.044880 -12.884662 0.578938 -2.723034 17.132476 -0.738615 4.499807 0.579544 -0.450879 8.565167 7.500991 -18.551271 15.966278 -8.161828 -57.820838 -1.770912 14.954137 -8.443195 -59.953816 25.305795 15.908623 -1.545301 -29.395311 14.030143 -10.723868 -13.463007 62.380370 -4.210410 26.164661 -2.012074 56.770803 14.847608 -4.300813 7.026777 -8.638502 
-0.789249 0.072121 0.920787 76.567447 1.400377 100.550052 4.934292 -2.849357 -41.213194 -7.582091 13.038107 26.910929 5.851387 16.354488 -11.554042 0.000000 -0.000000 0.000000 3.501990 2.499921 -27.921957 -8.618976 -13.982729 49.201821 3.119732 -29.080300 -30.679520 0.000000 -0.000000 0.000000 -2.176614 -0.270201 42.328288 -0.717921 -0.012903 -13.381100 0.496297 -2.765073 17.159811 -0.385120 4.389147 -1.023345 -0.260708 7.967241 10.037309 -18.620659 15.997059 -7.998263 -57.614545 -2.231744 15.007680 -8.171157 -59.891473 25.112760 16.120173 -1.664191 -29.457540 14.257200 -11.050282 -13.640323 62.085575 -4.574344 26.469500 -1.376878 56.308352 15.656117 -3.959215 7.185377 -8.771897 
-0.776863 0.072390 0.921532 76.869027 1.175436 100.831434 4.803680 -3.253773 -41.102498 -7.916911 13.052328 27.588573 5.874273 16.565441 -12.515207 0.000000 -0.000000 0.000000 3.437645 2.499237 -27.184323 -8.759614 -13.590896 48.845588 3.560084 -29.781963 -30.817528 0.000000 -0.000000 0.000000 -2.606096 0.050125 42.296225 -0.627449 -0.094968 -13.985503 0.472524 -2.836226 17.214469 -0.018740 4.298350 -2.567265 -0.208830 7.365577 12.852280 -18.735256 16.206255 -7.730160 -57.417393 -2.609863 15.104786 -8.109089 -60.192509 25.214833 16.265501 -1.803134 -29.730513 14.573143 -11.520476 -13.811115 61.653239 -4.873910 26.789544 -0.908467 55.987772 16.417945 -3.611947 7.383339 -8.778227 
-0.764321 0.072722 0.922552 77.246804 0.962559 101.206644 4.696488 -3.715916 -40.996335 -8.307589 12.982484 28.081968 5.982317 16.750853 -13.458634 0.000000 -0.000000 0.000000 3.278871 2.389325 -26.648509 -8.919804 -13.426316 48.778319 4.084962 -30.412774 -30.558906 0.000000 -0.000000 0.000000 -3.022959 0.363311 42.208863 -0.437921 -0.140903 -14.573430 0.492864 -2.921682 17.193491 0.449467 4.123423 -4.041855 -0.259686 6.779037 16.197079 -18.887159 16.458103 -7.319741 -57.240623 -2.974278 15.256333 -8.396627 -60.682349 25.613605 16.495253 -1.908167 -30.157778 14.906066 -12.056156 -13.886744 61.163431 -5.114176 27.035778 -0.790121 55.811945 16.681930 -3.339548 7.588599 -8.996427 
-0.752103 0.073513 0.923514 77.696172 0.791586 101.689475 4.498197 -4.142999 -41.039957 -8.609470 12.789535 28.577964 6.263786 16.982544 -14.365027 0.000000 -0.000000 0.000000 2.957942 2.395815 -26.952135 -9.190513 -13.247830 50.095073 4.770965 -30.887573 -29.258615 0.000000 -0.000000 0.000000 -3.320749 0.477924 42.045155 -0.213722 -0.062618 -15.199634 0.456984 -3.011945 17.147988 0.866364 3.919583 -5.269407 -0.461742 6.253243 19.723159 -18.997331 16.706134 -6.888934 -57.023235 -3.314707 15.444941 -9.163113 -61.009979 26.754091 16.282576 -2.274855 -30.256599 15.187777 -12.617473 -13.947642 60.627131 -5.268357 27.298529 -0.669447 55.728608 16.878220 -3.060583 7.826715 -9.314170 
